<mxfile host="app.diagrams.net" agent="Mozilla/5.0 (Windows NT 10.0; Win64; x64) AppleWebKit/537.36 (KHTML, like Gecko) Chrome/135.0.0.0 Safari/537.36" version="26.2.14">
  <diagram name="Page-1" id="oXIUyR0uqFXg7tcn66aT">
    <mxGraphModel dx="5210" dy="4210" grid="0" gridSize="10" guides="1" tooltips="1" connect="1" arrows="1" fold="1" page="1" pageScale="1" pageWidth="850" pageHeight="1100" math="0" shadow="0">
      <root>
        <mxCell id="0" />
        <mxCell id="1" parent="0" />
        <mxCell id="VEJxbwAkgKRmq-XEEwgV-10" value="" style="group" vertex="1" connectable="0" parent="1">
          <mxGeometry x="24" y="-1062" width="3640" height="1420" as="geometry" />
        </mxCell>
        <mxCell id="VEJxbwAkgKRmq-XEEwgV-1" value="&lt;pre style=&quot;margin-top:0px; margin-bottom:0px; margin-left:0px; margin-right:0px; -qt-block-indent:0; text-indent:0px; line-height:100%;&quot;&gt;&lt;span style=&quot;font-family: &amp;quot;Cascadia Mono SemiBold&amp;quot;; font-size: 20pt; font-weight: 600; color: rgb(25, 25, 25);&quot;&gt;************************************************************************&lt;/span&gt;&lt;/pre&gt;&lt;br&gt;&lt;p style=&quot;margin-top:0px; margin-bottom:0px; margin-left:0px; margin-right:0px; -qt-block-indent:0; text-indent:0px; line-height:100%;&quot;&gt;&lt;span style=&quot;font-family: &amp;quot;Cascadia Mono SemiBold&amp;quot;; font-size: 20pt; font-weight: 600; color: rgb(25, 25, 25);&quot;&gt;* auCdl Netlist:&lt;/span&gt;&lt;/p&gt;&lt;br&gt;&lt;p style=&quot;margin-top:0px; margin-bottom:0px; margin-left:0px; margin-right:0px; -qt-block-indent:0; text-indent:0px; line-height:100%;&quot;&gt;&lt;span style=&quot;font-family: &amp;quot;Cascadia Mono SemiBold&amp;quot;; font-size: 20pt; font-weight: 600; color: rgb(25, 25, 25);&quot;&gt;* &lt;/span&gt;&lt;/p&gt;&lt;br&gt;&lt;p style=&quot;margin-top:0px; margin-bottom:0px; margin-left:0px; margin-right:0px; -qt-block-indent:0; text-indent:0px; line-height:100%;&quot;&gt;&lt;span style=&quot;font-family: &amp;quot;Cascadia Mono SemiBold&amp;quot;; font-size: 20pt; font-weight: 600; color: rgb(25, 25, 25);&quot;&gt;* Library Name:  not&lt;/span&gt;&lt;/p&gt;&lt;br&gt;&lt;p style=&quot;margin-top:0px; margin-bottom:0px; margin-left:0px; margin-right:0px; -qt-block-indent:0; text-indent:0px; line-height:100%;&quot;&gt;&lt;span style=&quot;font-family: &amp;quot;Cascadia Mono SemiBold&amp;quot;; font-size: 20pt; font-weight: 600; color: rgb(25, 25, 25);&quot;&gt;* Top Cell Name: not&lt;/span&gt;&lt;/p&gt;&lt;br&gt;&lt;p style=&quot;margin-top:0px; margin-bottom:0px; margin-left:0px; margin-right:0px; -qt-block-indent:0; text-indent:0px; line-height:100%;&quot;&gt;&lt;span style=&quot;font-family: &amp;quot;Cascadia Mono SemiBold&amp;quot;; font-size: 20pt; font-weight: 600; color: rgb(25, 25, 25);&quot;&gt;* View Name:     schematic&lt;/span&gt;&lt;/p&gt;&lt;br&gt;&lt;p style=&quot;margin-top:0px; margin-bottom:0px; margin-left:0px; margin-right:0px; -qt-block-indent:0; text-indent:0px; line-height:100%;&quot;&gt;&lt;span style=&quot;font-family: &amp;quot;Cascadia Mono SemiBold&amp;quot;; font-size: 20pt; font-weight: 600; color: rgb(25, 25, 25);&quot;&gt;* Netlisted on:  Mar  2 02:32:26 2023&lt;/span&gt;&lt;/p&gt;&lt;br&gt;&lt;p style=&quot;margin-top:0px; margin-bottom:0px; margin-left:0px; margin-right:0px; -qt-block-indent:0; text-indent:0px; line-height:100%;&quot;&gt;&lt;span style=&quot;font-family: &amp;quot;Cascadia Mono SemiBold&amp;quot;; font-size: 20pt; font-weight: 600; color: rgb(25, 25, 25);&quot;&gt;************************************************************************&lt;/span&gt;&lt;/p&gt;&lt;br&gt;&lt;p style=&quot;margin: 0px; text-indent: 0px; line-height: 100%; font-family: &amp;quot;Cascadia Mono SemiBold&amp;quot;; font-size: 20pt; font-weight: 600; color: rgb(25, 25, 25);&quot;&gt;&lt;br&gt;&lt;/p&gt;&lt;br&gt;&lt;p style=&quot;margin-top:0px; margin-bottom:0px; margin-left:0px; margin-right:0px; -qt-block-indent:0; text-indent:0px; line-height:100%;&quot;&gt;&lt;span style=&quot;font-family: &amp;quot;Cascadia Mono SemiBold&amp;quot;; font-size: 20pt; font-weight: 600; color: rgb(25, 25, 25);&quot;&gt;*.BIPOLAR&lt;/span&gt;&lt;/p&gt;&lt;br&gt;&lt;p style=&quot;margin-top:0px; margin-bottom:0px; margin-left:0px; margin-right:0px; -qt-block-indent:0; text-indent:0px; line-height:100%;&quot;&gt;&lt;span style=&quot;font-family: &amp;quot;Cascadia Mono SemiBold&amp;quot;; font-size: 20pt; font-weight: 600; color: rgb(25, 25, 25);&quot;&gt;*.RESI = 2000 &lt;/span&gt;&lt;/p&gt;&lt;br&gt;&lt;p style=&quot;margin-top:0px; margin-bottom:0px; margin-left:0px; margin-right:0px; -qt-block-indent:0; text-indent:0px; line-height:100%;&quot;&gt;&lt;span style=&quot;font-family: &amp;quot;Cascadia Mono SemiBold&amp;quot;; font-size: 20pt; font-weight: 600; color: rgb(25, 25, 25);&quot;&gt;*.RESVAL&lt;/span&gt;&lt;/p&gt;&lt;br&gt;&lt;p style=&quot;margin-top:0px; margin-bottom:0px; margin-left:0px; margin-right:0px; -qt-block-indent:0; text-indent:0px; line-height:100%;&quot;&gt;&lt;span style=&quot;font-family: &amp;quot;Cascadia Mono SemiBold&amp;quot;; font-size: 20pt; font-weight: 600; color: rgb(25, 25, 25);&quot;&gt;*.CAPVAL&lt;/span&gt;&lt;/p&gt;&lt;br&gt;&lt;p style=&quot;margin-top:0px; margin-bottom:0px; margin-left:0px; margin-right:0px; -qt-block-indent:0; text-indent:0px; line-height:100%;&quot;&gt;&lt;span style=&quot;font-family: &amp;quot;Cascadia Mono SemiBold&amp;quot;; font-size: 20pt; font-weight: 600; color: rgb(25, 25, 25);&quot;&gt;*.DIOPERI&lt;/span&gt;&lt;/p&gt;&lt;br&gt;&lt;p style=&quot;margin-top:0px; margin-bottom:0px; margin-left:0px; margin-right:0px; -qt-block-indent:0; text-indent:0px; line-height:100%;&quot;&gt;&lt;span style=&quot;font-family: &amp;quot;Cascadia Mono SemiBold&amp;quot;; font-size: 20pt; font-weight: 600; color: rgb(25, 25, 25);&quot;&gt;*.DIOAREA&lt;/span&gt;&lt;/p&gt;&lt;br&gt;&lt;p style=&quot;margin-top:0px; margin-bottom:0px; margin-left:0px; margin-right:0px; -qt-block-indent:0; text-indent:0px; line-height:100%;&quot;&gt;&lt;span style=&quot;font-family: &amp;quot;Cascadia Mono SemiBold&amp;quot;; font-size: 20pt; font-weight: 600; color: rgb(25, 25, 25);&quot;&gt;*.EQUATION&lt;/span&gt;&lt;/p&gt;&lt;br&gt;&lt;p style=&quot;margin-top:0px; margin-bottom:0px; margin-left:0px; margin-right:0px; -qt-block-indent:0; text-indent:0px; line-height:100%;&quot;&gt;&lt;span style=&quot;font-family: &amp;quot;Cascadia Mono SemiBold&amp;quot;; font-size: 20pt; font-weight: 600; color: rgb(25, 25, 25);&quot;&gt;*.SCALE METER&lt;/span&gt;&lt;/p&gt;&lt;br&gt;&lt;p style=&quot;margin-top:0px; margin-bottom:0px; margin-left:0px; margin-right:0px; -qt-block-indent:0; text-indent:0px; line-height:100%;&quot;&gt;&lt;span style=&quot;font-family: &amp;quot;Cascadia Mono SemiBold&amp;quot;; font-size: 20pt; font-weight: 600; color: rgb(25, 25, 25);&quot;&gt;*.MEGA&lt;/span&gt;&lt;/p&gt;&lt;br&gt;&lt;p style=&quot;margin-top:0px; margin-bottom:0px; margin-left:0px; margin-right:0px; -qt-block-indent:0; text-indent:0px; line-height:100%;&quot;&gt;&lt;span style=&quot;font-family: &amp;quot;Cascadia Mono SemiBold&amp;quot;; font-size: 20pt; font-weight: 600; color: rgb(25, 25, 25);&quot;&gt;.PARAM&lt;/span&gt;&lt;/p&gt;&lt;br&gt;&lt;p style=&quot;margin: 0px; text-indent: 0px; line-height: 100%; font-family: &amp;quot;Cascadia Mono SemiBold&amp;quot;; font-size: 20pt; font-weight: 600; color: rgb(25, 25, 25);&quot;&gt;&lt;br&gt;&lt;/p&gt;&lt;br&gt;&lt;p style=&quot;margin: 0px; text-indent: 0px; line-height: 100%; font-family: &amp;quot;Cascadia Mono SemiBold&amp;quot;; font-size: 20pt; font-weight: 600; color: rgb(25, 25, 25);&quot;&gt;&lt;br&gt;&lt;/p&gt;&lt;br&gt;&lt;p style=&quot;margin: 0px; text-indent: 0px; line-height: 100%; font-family: &amp;quot;Cascadia Mono SemiBold&amp;quot;; font-size: 20pt; font-weight: 600; color: rgb(25, 25, 25);&quot;&gt;&lt;br&gt;&lt;/p&gt;&lt;br&gt;&lt;p style=&quot;margin-top:0px; margin-bottom:0px; margin-left:0px; margin-right:0px; -qt-block-indent:0; text-indent:0px; line-height:100%;&quot;&gt;&lt;span style=&quot;font-family: &amp;quot;Cascadia Mono SemiBold&amp;quot;; font-size: 20pt; font-weight: 600; color: rgb(25, 25, 25);&quot;&gt;************************************************************************&lt;/span&gt;&lt;/p&gt;&lt;br&gt;&lt;p style=&quot;margin-top:0px; margin-bottom:0px; margin-left:0px; margin-right:0px; -qt-block-indent:0; text-indent:0px; line-height:100%;&quot;&gt;&lt;span style=&quot;font-family: &amp;quot;Cascadia Mono SemiBold&amp;quot;; font-size: 20pt; font-weight: 600; color: rgb(25, 25, 25);&quot;&gt;* Library Name: not&lt;/span&gt;&lt;/p&gt;&lt;br&gt;&lt;p style=&quot;margin-top:0px; margin-bottom:0px; margin-left:0px; margin-right:0px; -qt-block-indent:0; text-indent:0px; line-height:100%;&quot;&gt;&lt;span style=&quot;font-family: &amp;quot;Cascadia Mono SemiBold&amp;quot;; font-size: 20pt; font-weight: 600; color: rgb(25, 25, 25);&quot;&gt;* Cell Name:    not&lt;/span&gt;&lt;/p&gt;&lt;br&gt;&lt;p style=&quot;margin-top:0px; margin-bottom:0px; margin-left:0px; margin-right:0px; -qt-block-indent:0; text-indent:0px; line-height:100%;&quot;&gt;&lt;span style=&quot;font-family: &amp;quot;Cascadia Mono SemiBold&amp;quot;; font-size: 20pt; font-weight: 600; color: rgb(25, 25, 25);&quot;&gt;* View Name:    schematic&lt;/span&gt;&lt;/p&gt;&lt;br&gt;&lt;p style=&quot;margin-top:0px; margin-bottom:0px; margin-left:0px; margin-right:0px; -qt-block-indent:0; text-indent:0px; line-height:100%;&quot;&gt;&lt;span style=&quot;font-family: &amp;quot;Cascadia Mono SemiBold&amp;quot;; font-size: 20pt; font-weight: 600; color: rgb(25, 25, 25);&quot;&gt;************************************************************************&lt;/span&gt;&lt;/p&gt;&lt;br&gt;&lt;p style=&quot;margin-top:0px; margin-bottom:0px; margin-left:0px; margin-right:0px; -qt-block-indent:0; text-indent:0px; line-height:100%;&quot;&gt;&lt;span style=&quot;font-family: &amp;quot;Cascadia Mono SemiBold&amp;quot;; font-size: 20pt; font-weight: 600; color: rgb(25, 25, 25);&quot;&gt;simulator lang=spice&lt;/span&gt;&lt;/p&gt;&lt;br&gt;&lt;p style=&quot;margin-top:0px; margin-bottom:0px; margin-left:0px; margin-right:0px; -qt-block-indent:0; text-indent:0px; line-height:100%;&quot;&gt;&lt;span style=&quot;font-family: &amp;quot;Cascadia Mono SemiBold&amp;quot;; font-size: 20pt; font-weight: 600; color: rgb(25, 25, 25);&quot;&gt;.SUBCKT not A GND VDD Y&lt;/span&gt;&lt;/p&gt;&lt;br&gt;&lt;p style=&quot;margin-top:0px; margin-bottom:0px; margin-left:0px; margin-right:0px; -qt-block-indent:0; text-indent:0px; line-height:100%;&quot;&gt;&lt;span style=&quot;font-family: &amp;quot;Cascadia Mono SemiBold&amp;quot;; font-size: 20pt; font-weight: 600; color: rgb(25, 25, 25);&quot;&gt;*.PININFO A:I Y:O GND:B VDD:B&lt;/span&gt;&lt;/p&gt;&lt;br&gt;&lt;p style=&quot;margin-top:0px; margin-bottom:0px; margin-left:0px; margin-right:0px; -qt-block-indent:0; text-indent:0px; line-height:100%;&quot;&gt;&lt;span style=&quot;font-family: &amp;quot;Cascadia Mono SemiBold&amp;quot;; font-size: 20pt; font-weight: 600; color: rgb(25, 25, 25);&quot;&gt;MNM0 Y A GND GND g45n1svt m=1 l=45n w=120n&lt;/span&gt;&lt;/p&gt;&lt;br&gt;&lt;p style=&quot;margin-top:0px; margin-bottom:0px; margin-left:0px; margin-right:0px; -qt-block-indent:0; text-indent:0px; line-height:100%;&quot;&gt;&lt;span style=&quot;font-family: &amp;quot;Cascadia Mono SemiBold&amp;quot;; font-size: 20pt; font-weight: 600; color: rgb(25, 25, 25);&quot;&gt;MPM0 Y A VDD VDD g45p1svt m=1 l=45n w=120n&lt;/span&gt;&lt;/p&gt;&lt;br&gt;&lt;p style=&quot;margin-top:0px; margin-bottom:0px; margin-left:0px; margin-right:0px; -qt-block-indent:0; text-indent:0px; line-height:100%;&quot;&gt;&lt;span style=&quot;font-family: &amp;quot;Cascadia Mono SemiBold&amp;quot;; font-size: 20pt; font-weight: 600; color: rgb(25, 25, 25);&quot;&gt;.ENDS&lt;/span&gt;&lt;/p&gt;&lt;br&gt;&lt;p style=&quot;margin: 0px; text-indent: 0px; line-height: 100%; font-family: &amp;quot;Cascadia Mono SemiBold&amp;quot;; font-size: 20pt; font-weight: 600; color: rgb(25, 25, 25);&quot;&gt;&lt;br&gt;&lt;/p&gt;" style="text;whiteSpace=wrap;html=1;" vertex="1" parent="VEJxbwAkgKRmq-XEEwgV-10">
          <mxGeometry y="250" width="1140" height="1170" as="geometry" />
        </mxCell>
        <mxCell id="VEJxbwAkgKRmq-XEEwgV-3" value="&lt;p style=&quot;margin-top:0px; margin-bottom:0px; margin-left:0px; margin-right:0px; -qt-block-indent:0; text-indent:0px; line-height:100%;&quot;&gt;&lt;span style=&quot;font-family:&#39;Cascadia Mono SemiBold&#39;; font-size:20pt; font-weight:600; color:#191919;&quot;&gt;************************************************************************&lt;/span&gt;&lt;/p&gt;&#xa;&lt;p style=&quot;margin-top:0px; margin-bottom:0px; margin-left:0px; margin-right:0px; -qt-block-indent:0; text-indent:0px; line-height:100%;&quot;&gt;&lt;span style=&quot;font-family:&#39;Cascadia Mono SemiBold&#39;; font-size:20pt; font-weight:600; color:#191919;&quot;&gt;* auCdl Netlist:&lt;/span&gt;&lt;/p&gt;&#xa;&lt;p style=&quot;margin-top:0px; margin-bottom:0px; margin-left:0px; margin-right:0px; -qt-block-indent:0; text-indent:0px; line-height:100%;&quot;&gt;&lt;span style=&quot;font-family:&#39;Cascadia Mono SemiBold&#39;; font-size:20pt; font-weight:600; color:#191919;&quot;&gt;* &lt;/span&gt;&lt;/p&gt;&#xa;&lt;p style=&quot;margin-top:0px; margin-bottom:0px; margin-left:0px; margin-right:0px; -qt-block-indent:0; text-indent:0px; line-height:100%;&quot;&gt;&lt;span style=&quot;font-family:&#39;Cascadia Mono SemiBold&#39;; font-size:20pt; font-weight:600; color:#191919;&quot;&gt;* Library Name:  not&lt;/span&gt;&lt;/p&gt;&#xa;&lt;p style=&quot;margin-top:0px; margin-bottom:0px; margin-left:0px; margin-right:0px; -qt-block-indent:0; text-indent:0px; line-height:100%;&quot;&gt;&lt;span style=&quot;font-family:&#39;Cascadia Mono SemiBold&#39;; font-size:20pt; font-weight:600; color:#191919;&quot;&gt;* Top Cell Name: not&lt;/span&gt;&lt;/p&gt;&#xa;&lt;p style=&quot;margin-top:0px; margin-bottom:0px; margin-left:0px; margin-right:0px; -qt-block-indent:0; text-indent:0px; line-height:100%;&quot;&gt;&lt;span style=&quot;font-family:&#39;Cascadia Mono SemiBold&#39;; font-size:20pt; font-weight:600; color:#191919;&quot;&gt;* View Name:     schematic&lt;/span&gt;&lt;/p&gt;&#xa;&lt;p style=&quot;margin-top:0px; margin-bottom:0px; margin-left:0px; margin-right:0px; -qt-block-indent:0; text-indent:0px; line-height:100%;&quot;&gt;&lt;span style=&quot;font-family:&#39;Cascadia Mono SemiBold&#39;; font-size:20pt; font-weight:600; color:#191919;&quot;&gt;* Netlisted on:  Mar  1 23:55:38 2023&lt;/span&gt;&lt;/p&gt;&#xa;&lt;p style=&quot;margin-top:0px; margin-bottom:0px; margin-left:0px; margin-right:0px; -qt-block-indent:0; text-indent:0px; line-height:100%;&quot;&gt;&lt;span style=&quot;font-family:&#39;Cascadia Mono SemiBold&#39;; font-size:20pt; font-weight:600; color:#191919;&quot;&gt;************************************************************************&lt;/span&gt;&lt;/p&gt;&#xa;&lt;p style=&quot;-qt-paragraph-type:empty; margin-top:0px; margin-bottom:0px; margin-left:0px; margin-right:0px; -qt-block-indent:0; text-indent:0px; line-height:100%; font-family:&#39;Cascadia Mono SemiBold&#39;; font-size:20pt; font-weight:600; color:#191919;&quot;&gt;&lt;br&gt;&lt;/p&gt;&#xa;&lt;p style=&quot;margin-top:0px; margin-bottom:0px; margin-left:0px; margin-right:0px; -qt-block-indent:0; text-indent:0px; line-height:100%;&quot;&gt;&lt;span style=&quot;font-family:&#39;Cascadia Mono SemiBold&#39;; font-size:20pt; font-weight:600; color:#191919;&quot;&gt;*.BIPOLAR&lt;/span&gt;&lt;/p&gt;&#xa;&lt;p style=&quot;margin-top:0px; margin-bottom:0px; margin-left:0px; margin-right:0px; -qt-block-indent:0; text-indent:0px; line-height:100%;&quot;&gt;&lt;span style=&quot;font-family:&#39;Cascadia Mono SemiBold&#39;; font-size:20pt; font-weight:600; color:#191919;&quot;&gt;*.RESI = 2000 &lt;/span&gt;&lt;/p&gt;&#xa;&lt;p style=&quot;margin-top:0px; margin-bottom:0px; margin-left:0px; margin-right:0px; -qt-block-indent:0; text-indent:0px; line-height:100%;&quot;&gt;&lt;span style=&quot;font-family:&#39;Cascadia Mono SemiBold&#39;; font-size:20pt; font-weight:600; color:#191919;&quot;&gt;*.RESVAL&lt;/span&gt;&lt;/p&gt;&#xa;&lt;p style=&quot;margin-top:0px; margin-bottom:0px; margin-left:0px; margin-right:0px; -qt-block-indent:0; text-indent:0px; line-height:100%;&quot;&gt;&lt;span style=&quot;font-family:&#39;Cascadia Mono SemiBold&#39;; font-size:20pt; font-weight:600; color:#191919;&quot;&gt;*.CAPVAL&lt;/span&gt;&lt;/p&gt;&#xa;&lt;p style=&quot;margin-top:0px; margin-bottom:0px; margin-left:0px; margin-right:0px; -qt-block-indent:0; text-indent:0px; line-height:100%;&quot;&gt;&lt;span style=&quot;font-family:&#39;Cascadia Mono SemiBold&#39;; font-size:20pt; font-weight:600; color:#191919;&quot;&gt;*.DIOPERI&lt;/span&gt;&lt;/p&gt;&#xa;&lt;p style=&quot;margin-top:0px; margin-bottom:0px; margin-left:0px; margin-right:0px; -qt-block-indent:0; text-indent:0px; line-height:100%;&quot;&gt;&lt;span style=&quot;font-family:&#39;Cascadia Mono SemiBold&#39;; font-size:20pt; font-weight:600; color:#191919;&quot;&gt;*.DIOAREA&lt;/span&gt;&lt;/p&gt;&#xa;&lt;p style=&quot;margin-top:0px; margin-bottom:0px; margin-left:0px; margin-right:0px; -qt-block-indent:0; text-indent:0px; line-height:100%;&quot;&gt;&lt;span style=&quot;font-family:&#39;Cascadia Mono SemiBold&#39;; font-size:20pt; font-weight:600; color:#191919;&quot;&gt;*.EQUATION&lt;/span&gt;&lt;/p&gt;&#xa;&lt;p style=&quot;margin-top:0px; margin-bottom:0px; margin-left:0px; margin-right:0px; -qt-block-indent:0; text-indent:0px; line-height:100%;&quot;&gt;&lt;span style=&quot;font-family:&#39;Cascadia Mono SemiBold&#39;; font-size:20pt; font-weight:600; color:#191919;&quot;&gt;*.SCALE METER&lt;/span&gt;&lt;/p&gt;&#xa;&lt;p style=&quot;margin-top:0px; margin-bottom:0px; margin-left:0px; margin-right:0px; -qt-block-indent:0; text-indent:0px; line-height:100%;&quot;&gt;&lt;span style=&quot;font-family:&#39;Cascadia Mono SemiBold&#39;; font-size:20pt; font-weight:600; color:#191919;&quot;&gt;*.MEGA&lt;/span&gt;&lt;/p&gt;&#xa;&lt;p style=&quot;margin-top:0px; margin-bottom:0px; margin-left:0px; margin-right:0px; -qt-block-indent:0; text-indent:0px; line-height:100%;&quot;&gt;&lt;span style=&quot;font-family:&#39;Cascadia Mono SemiBold&#39;; font-size:20pt; font-weight:600; color:#191919;&quot;&gt;.PARAM&lt;/span&gt;&lt;/p&gt;&#xa;&lt;p style=&quot;-qt-paragraph-type:empty; margin-top:0px; margin-bottom:0px; margin-left:0px; margin-right:0px; -qt-block-indent:0; text-indent:0px; line-height:100%; font-family:&#39;Cascadia Mono SemiBold&#39;; font-size:20pt; font-weight:600; color:#191919;&quot;&gt;&lt;br&gt;&lt;/p&gt;&#xa;&lt;p style=&quot;-qt-paragraph-type:empty; margin-top:0px; margin-bottom:0px; margin-left:0px; margin-right:0px; -qt-block-indent:0; text-indent:0px; line-height:100%; font-family:&#39;Cascadia Mono SemiBold&#39;; font-size:20pt; font-weight:600; color:#191919;&quot;&gt;&lt;br&gt;&lt;/p&gt;&#xa;&lt;p style=&quot;-qt-paragraph-type:empty; margin-top:0px; margin-bottom:0px; margin-left:0px; margin-right:0px; -qt-block-indent:0; text-indent:0px; line-height:100%; font-family:&#39;Cascadia Mono SemiBold&#39;; font-size:20pt; font-weight:600; color:#191919;&quot;&gt;&lt;br&gt;&lt;/p&gt;&#xa;&lt;p style=&quot;margin-top:0px; margin-bottom:0px; margin-left:0px; margin-right:0px; -qt-block-indent:0; text-indent:0px; line-height:100%;&quot;&gt;&lt;span style=&quot;font-family:&#39;Cascadia Mono SemiBold&#39;; font-size:20pt; font-weight:600; color:#191919;&quot;&gt;************************************************************************&lt;/span&gt;&lt;/p&gt;&#xa;&lt;p style=&quot;margin-top:0px; margin-bottom:0px; margin-left:0px; margin-right:0px; -qt-block-indent:0; text-indent:0px; line-height:100%;&quot;&gt;&lt;span style=&quot;font-family:&#39;Cascadia Mono SemiBold&#39;; font-size:20pt; font-weight:600; color:#191919;&quot;&gt;* Library Name: not&lt;/span&gt;&lt;/p&gt;&#xa;&lt;p style=&quot;margin-top:0px; margin-bottom:0px; margin-left:0px; margin-right:0px; -qt-block-indent:0; text-indent:0px; line-height:100%;&quot;&gt;&lt;span style=&quot;font-family:&#39;Cascadia Mono SemiBold&#39;; font-size:20pt; font-weight:600; color:#191919;&quot;&gt;* Cell Name:    not&lt;/span&gt;&lt;/p&gt;&#xa;&lt;p style=&quot;margin-top:0px; margin-bottom:0px; margin-left:0px; margin-right:0px; -qt-block-indent:0; text-indent:0px; line-height:100%;&quot;&gt;&lt;span style=&quot;font-family:&#39;Cascadia Mono SemiBold&#39;; font-size:20pt; font-weight:600; color:#191919;&quot;&gt;* View Name:    schematic&lt;/span&gt;&lt;/p&gt;&#xa;&lt;p style=&quot;margin-top:0px; margin-bottom:0px; margin-left:0px; margin-right:0px; -qt-block-indent:0; text-indent:0px; line-height:100%;&quot;&gt;&lt;span style=&quot;font-family:&#39;Cascadia Mono SemiBold&#39;; font-size:20pt; font-weight:600; color:#191919;&quot;&gt;************************************************************************&lt;/span&gt;&lt;/p&gt;&#xa;&lt;p style=&quot;margin-top:0px; margin-bottom:0px; margin-left:0px; margin-right:0px; -qt-block-indent:0; text-indent:0px; line-height:100%;&quot;&gt;&lt;span style=&quot;font-family:&#39;Cascadia Mono SemiBold&#39;; font-size:20pt; font-weight:600; color:#191919;&quot;&gt;simulator lang=spice&lt;/span&gt;&lt;/p&gt;&#xa;&lt;p style=&quot;margin-top:0px; margin-bottom:0px; margin-left:0px; margin-right:0px; -qt-block-indent:0; text-indent:0px; line-height:100%;&quot;&gt;&lt;span style=&quot;font-family:&#39;Cascadia Mono SemiBold&#39;; font-size:20pt; font-weight:600; color:#191919;&quot;&gt;.SUBCKT not a gnd vdd y&lt;/span&gt;&lt;/p&gt;&#xa;&lt;p style=&quot;margin-top:0px; margin-bottom:0px; margin-left:0px; margin-right:0px; -qt-block-indent:0; text-indent:0px; line-height:100%;&quot;&gt;&lt;span style=&quot;font-family:&#39;Cascadia Mono SemiBold&#39;; font-size:20pt; font-weight:600; color:#191919;&quot;&gt;*.PININFO a:I y:O gnd:B vdd:B&lt;/span&gt;&lt;/p&gt;&#xa;&lt;p style=&quot;margin-top:0px; margin-bottom:0px; margin-left:0px; margin-right:0px; -qt-block-indent:0; text-indent:0px; line-height:100%;&quot;&gt;&lt;span style=&quot;font-family:&#39;Cascadia Mono SemiBold&#39;; font-size:20pt; font-weight:600; color:#191919;&quot;&gt;MNM0 y a gnd gnd nmos1v m=1 l=100n w=120n&lt;/span&gt;&lt;/p&gt;&#xa;&lt;p style=&quot;margin-top:0px; margin-bottom:0px; margin-left:0px; margin-right:0px; -qt-block-indent:0; text-indent:0px; line-height:100%;&quot;&gt;&lt;span style=&quot;font-family:&#39;Cascadia Mono SemiBold&#39;; font-size:20pt; font-weight:600; color:#191919;&quot;&gt;MPM0 y a vdd vdd pmos1v m=1 l=100n w=360n&lt;/span&gt;&lt;/p&gt;&#xa;&lt;p style=&quot;margin-top:0px; margin-bottom:0px; margin-left:0px; margin-right:0px; -qt-block-indent:0; text-indent:0px; line-height:100%;&quot;&gt;&lt;span style=&quot;font-family:&#39;Cascadia Mono SemiBold&#39;; font-size:20pt; font-weight:600; color:#191919;&quot;&gt;.ENDS&lt;/span&gt;&lt;/p&gt;&#xa;&lt;p style=&quot;-qt-paragraph-type:empty; margin-top:0px; margin-bottom:0px; margin-left:0px; margin-right:0px; -qt-block-indent:0; text-indent:0px; line-height:100%; font-family:&#39;Cascadia Mono SemiBold&#39;; font-size:20pt; font-weight:600; color:#191919;&quot;&gt;&lt;br&gt;&lt;/p&gt;" style="text;whiteSpace=wrap;html=1;" vertex="1" parent="VEJxbwAkgKRmq-XEEwgV-10">
          <mxGeometry x="1240" y="250" width="1160" height="1170" as="geometry" />
        </mxCell>
        <mxCell id="VEJxbwAkgKRmq-XEEwgV-4" value="&lt;p style=&quot;margin-top:0px; margin-bottom:0px; margin-left:0px; margin-right:0px; -qt-block-indent:0; text-indent:0px; line-height:100%;&quot;&gt;&lt;span style=&quot;font-family:&#39;Cascadia Mono SemiBold&#39;; font-size:20pt; font-weight:600; color:#191919;&quot;&gt;************************************************************************&lt;/span&gt;&lt;/p&gt;&#xa;&lt;p style=&quot;margin-top:0px; margin-bottom:0px; margin-left:0px; margin-right:0px; -qt-block-indent:0; text-indent:0px; line-height:100%;&quot;&gt;&lt;span style=&quot;font-family:&#39;Cascadia Mono SemiBold&#39;; font-size:20pt; font-weight:600; color:#191919;&quot;&gt;* auCdl Netlist:&lt;/span&gt;&lt;/p&gt;&#xa;&lt;p style=&quot;margin-top:0px; margin-bottom:0px; margin-left:0px; margin-right:0px; -qt-block-indent:0; text-indent:0px; line-height:100%;&quot;&gt;&lt;span style=&quot;font-family:&#39;Cascadia Mono SemiBold&#39;; font-size:20pt; font-weight:600; color:#191919;&quot;&gt;* &lt;/span&gt;&lt;/p&gt;&#xa;&lt;p style=&quot;margin-top:0px; margin-bottom:0px; margin-left:0px; margin-right:0px; -qt-block-indent:0; text-indent:0px; line-height:100%;&quot;&gt;&lt;span style=&quot;font-family:&#39;Cascadia Mono SemiBold&#39;; font-size:20pt; font-weight:600; color:#191919;&quot;&gt;* Library Name:  not&lt;/span&gt;&lt;/p&gt;&#xa;&lt;p style=&quot;margin-top:0px; margin-bottom:0px; margin-left:0px; margin-right:0px; -qt-block-indent:0; text-indent:0px; line-height:100%;&quot;&gt;&lt;span style=&quot;font-family:&#39;Cascadia Mono SemiBold&#39;; font-size:20pt; font-weight:600; color:#191919;&quot;&gt;* Top Cell Name: not&lt;/span&gt;&lt;/p&gt;&#xa;&lt;p style=&quot;margin-top:0px; margin-bottom:0px; margin-left:0px; margin-right:0px; -qt-block-indent:0; text-indent:0px; line-height:100%;&quot;&gt;&lt;span style=&quot;font-family:&#39;Cascadia Mono SemiBold&#39;; font-size:20pt; font-weight:600; color:#191919;&quot;&gt;* View Name:     schematic&lt;/span&gt;&lt;/p&gt;&#xa;&lt;p style=&quot;margin-top:0px; margin-bottom:0px; margin-left:0px; margin-right:0px; -qt-block-indent:0; text-indent:0px; line-height:100%;&quot;&gt;&lt;span style=&quot;font-family:&#39;Cascadia Mono SemiBold&#39;; font-size:20pt; font-weight:600; color:#191919;&quot;&gt;* Netlisted on:  Mar  1 23:45:32 2023&lt;/span&gt;&lt;/p&gt;&#xa;&lt;p style=&quot;margin-top:0px; margin-bottom:0px; margin-left:0px; margin-right:0px; -qt-block-indent:0; text-indent:0px; line-height:100%;&quot;&gt;&lt;span style=&quot;font-family:&#39;Cascadia Mono SemiBold&#39;; font-size:20pt; font-weight:600; color:#191919;&quot;&gt;***********************************************************************&lt;/span&gt;&lt;/p&gt;&#xa;&lt;p style=&quot;-qt-paragraph-type:empty; margin-top:0px; margin-bottom:0px; margin-left:0px; margin-right:0px; -qt-block-indent:0; text-indent:0px; line-height:100%; font-family:&#39;Cascadia Mono SemiBold&#39;; font-size:20pt; font-weight:600; color:#191919;&quot;&gt;&lt;br&gt;&lt;/p&gt;&#xa;&lt;p style=&quot;margin-top:0px; margin-bottom:0px; margin-left:0px; margin-right:0px; -qt-block-indent:0; text-indent:0px; line-height:100%;&quot;&gt;&lt;span style=&quot;font-family:&#39;Cascadia Mono SemiBold&#39;; font-size:20pt; font-weight:600; color:#191919;&quot;&gt;*.BIPOLAR&lt;/span&gt;&lt;/p&gt;&#xa;&lt;p style=&quot;margin-top:0px; margin-bottom:0px; margin-left:0px; margin-right:0px; -qt-block-indent:0; text-indent:0px; line-height:100%;&quot;&gt;&lt;span style=&quot;font-family:&#39;Cascadia Mono SemiBold&#39;; font-size:20pt; font-weight:600; color:#191919;&quot;&gt;*.RESI = 2000 &lt;/span&gt;&lt;/p&gt;&#xa;&lt;p style=&quot;margin-top:0px; margin-bottom:0px; margin-left:0px; margin-right:0px; -qt-block-indent:0; text-indent:0px; line-height:100%;&quot;&gt;&lt;span style=&quot;font-family:&#39;Cascadia Mono SemiBold&#39;; font-size:20pt; font-weight:600; color:#191919;&quot;&gt;*.RESVAL&lt;/span&gt;&lt;/p&gt;&#xa;&lt;p style=&quot;margin-top:0px; margin-bottom:0px; margin-left:0px; margin-right:0px; -qt-block-indent:0; text-indent:0px; line-height:100%;&quot;&gt;&lt;span style=&quot;font-family:&#39;Cascadia Mono SemiBold&#39;; font-size:20pt; font-weight:600; color:#191919;&quot;&gt;*.CAPVAL&lt;/span&gt;&lt;/p&gt;&#xa;&lt;p style=&quot;margin-top:0px; margin-bottom:0px; margin-left:0px; margin-right:0px; -qt-block-indent:0; text-indent:0px; line-height:100%;&quot;&gt;&lt;span style=&quot;font-family:&#39;Cascadia Mono SemiBold&#39;; font-size:20pt; font-weight:600; color:#191919;&quot;&gt;*.DIOPERI&lt;/span&gt;&lt;/p&gt;&#xa;&lt;p style=&quot;margin-top:0px; margin-bottom:0px; margin-left:0px; margin-right:0px; -qt-block-indent:0; text-indent:0px; line-height:100%;&quot;&gt;&lt;span style=&quot;font-family:&#39;Cascadia Mono SemiBold&#39;; font-size:20pt; font-weight:600; color:#191919;&quot;&gt;*.DIOAREA&lt;/span&gt;&lt;/p&gt;&#xa;&lt;p style=&quot;margin-top:0px; margin-bottom:0px; margin-left:0px; margin-right:0px; -qt-block-indent:0; text-indent:0px; line-height:100%;&quot;&gt;&lt;span style=&quot;font-family:&#39;Cascadia Mono SemiBold&#39;; font-size:20pt; font-weight:600; color:#191919;&quot;&gt;*.EQUATION&lt;/span&gt;&lt;/p&gt;&#xa;&lt;p style=&quot;margin-top:0px; margin-bottom:0px; margin-left:0px; margin-right:0px; -qt-block-indent:0; text-indent:0px; line-height:100%;&quot;&gt;&lt;span style=&quot;font-family:&#39;Cascadia Mono SemiBold&#39;; font-size:20pt; font-weight:600; color:#191919;&quot;&gt;*.SCALE METER&lt;/span&gt;&lt;/p&gt;&#xa;&lt;p style=&quot;margin-top:0px; margin-bottom:0px; margin-left:0px; margin-right:0px; -qt-block-indent:0; text-indent:0px; line-height:100%;&quot;&gt;&lt;span style=&quot;font-family:&#39;Cascadia Mono SemiBold&#39;; font-size:20pt; font-weight:600; color:#191919;&quot;&gt;*.MEGA&lt;/span&gt;&lt;/p&gt;&#xa;&lt;p style=&quot;margin-top:0px; margin-bottom:0px; margin-left:0px; margin-right:0px; -qt-block-indent:0; text-indent:0px; line-height:100%;&quot;&gt;&lt;span style=&quot;font-family:&#39;Cascadia Mono SemiBold&#39;; font-size:20pt; font-weight:600; color:#191919;&quot;&gt;.PARAM&lt;/span&gt;&lt;/p&gt;&#xa;&lt;p style=&quot;-qt-paragraph-type:empty; margin-top:0px; margin-bottom:0px; margin-left:0px; margin-right:0px; -qt-block-indent:0; text-indent:0px; line-height:100%; font-family:&#39;Cascadia Mono SemiBold&#39;; font-size:20pt; font-weight:600; color:#191919;&quot;&gt;&lt;br&gt;&lt;/p&gt;&#xa;&lt;p style=&quot;-qt-paragraph-type:empty; margin-top:0px; margin-bottom:0px; margin-left:0px; margin-right:0px; -qt-block-indent:0; text-indent:0px; line-height:100%; font-family:&#39;Cascadia Mono SemiBold&#39;; font-size:20pt; font-weight:600; color:#191919;&quot;&gt;&lt;br&gt;&lt;/p&gt;&#xa;&lt;p style=&quot;-qt-paragraph-type:empty; margin-top:0px; margin-bottom:0px; margin-left:0px; margin-right:0px; -qt-block-indent:0; text-indent:0px; line-height:100%; font-family:&#39;Cascadia Mono SemiBold&#39;; font-size:20pt; font-weight:600; color:#191919;&quot;&gt;&lt;br&gt;&lt;/p&gt;&#xa;&lt;p style=&quot;margin-top:0px; margin-bottom:0px; margin-left:0px; margin-right:0px; -qt-block-indent:0; text-indent:0px; line-height:100%;&quot;&gt;&lt;span style=&quot;font-family:&#39;Cascadia Mono SemiBold&#39;; font-size:20pt; font-weight:600; color:#191919;&quot;&gt;************************************************************************&lt;/span&gt;&lt;/p&gt;&#xa;&lt;p style=&quot;margin-top:0px; margin-bottom:0px; margin-left:0px; margin-right:0px; -qt-block-indent:0; text-indent:0px; line-height:100%;&quot;&gt;&lt;span style=&quot;font-family:&#39;Cascadia Mono SemiBold&#39;; font-size:20pt; font-weight:600; color:#191919;&quot;&gt;* Library Name: not&lt;/span&gt;&lt;/p&gt;&#xa;&lt;p style=&quot;margin-top:0px; margin-bottom:0px; margin-left:0px; margin-right:0px; -qt-block-indent:0; text-indent:0px; line-height:100%;&quot;&gt;&lt;span style=&quot;font-family:&#39;Cascadia Mono SemiBold&#39;; font-size:20pt; font-weight:600; color:#191919;&quot;&gt;* Cell Name:    not&lt;/span&gt;&lt;/p&gt;&#xa;&lt;p style=&quot;margin-top:0px; margin-bottom:0px; margin-left:0px; margin-right:0px; -qt-block-indent:0; text-indent:0px; line-height:100%;&quot;&gt;&lt;span style=&quot;font-family:&#39;Cascadia Mono SemiBold&#39;; font-size:20pt; font-weight:600; color:#191919;&quot;&gt;* View Name:    schematic&lt;/span&gt;&lt;/p&gt;&#xa;&lt;p style=&quot;margin-top:0px; margin-bottom:0px; margin-left:0px; margin-right:0px; -qt-block-indent:0; text-indent:0px; line-height:100%;&quot;&gt;&lt;span style=&quot;font-family:&#39;Cascadia Mono SemiBold&#39;; font-size:20pt; font-weight:600; color:#191919;&quot;&gt;************************************************************************&lt;/span&gt;&lt;/p&gt;&#xa;&lt;p style=&quot;margin-top:0px; margin-bottom:0px; margin-left:0px; margin-right:0px; -qt-block-indent:0; text-indent:0px; line-height:100%;&quot;&gt;&lt;span style=&quot;font-family:&#39;Cascadia Mono SemiBold&#39;; font-size:20pt; font-weight:600; color:#191919;&quot;&gt;simulator lang=spice&lt;/span&gt;&lt;/p&gt;&#xa;&lt;p style=&quot;margin-top:0px; margin-bottom:0px; margin-left:0px; margin-right:0px; -qt-block-indent:0; text-indent:0px; line-height:100%;&quot;&gt;&lt;span style=&quot;font-family:&#39;Cascadia Mono SemiBold&#39;; font-size:20pt; font-weight:600; color:#191919;&quot;&gt;.SUBCKT not A GND VDD Y&lt;/span&gt;&lt;/p&gt;&#xa;&lt;p style=&quot;margin-top:0px; margin-bottom:0px; margin-left:0px; margin-right:0px; -qt-block-indent:0; text-indent:0px; line-height:100%;&quot;&gt;&lt;span style=&quot;font-family:&#39;Cascadia Mono SemiBold&#39;; font-size:20pt; font-weight:600; color:#191919;&quot;&gt;*.PININFO A:I Y:O GND:B VDD:B&lt;/span&gt;&lt;/p&gt;&#xa;&lt;p style=&quot;margin-top:0px; margin-bottom:0px; margin-left:0px; margin-right:0px; -qt-block-indent:0; text-indent:0px; line-height:100%;&quot;&gt;&lt;span style=&quot;font-family:&#39;Cascadia Mono SemiBold&#39;; font-size:20pt; font-weight:600; color:#191919;&quot;&gt;MNM0 Y A GND GND nmos W=2u L=180n M=1&lt;/span&gt;&lt;/p&gt;&#xa;&lt;p style=&quot;margin-top:0px; margin-bottom:0px; margin-left:0px; margin-right:0px; -qt-block-indent:0; text-indent:0px; line-height:100%;&quot;&gt;&lt;span style=&quot;font-family:&#39;Cascadia Mono SemiBold&#39;; font-size:20pt; font-weight:600; color:#191919;&quot;&gt;MPM0 Y A VDD VDD pmos W=2u L=180n M=1&lt;/span&gt;&lt;/p&gt;&#xa;&lt;p style=&quot;margin-top:0px; margin-bottom:0px; margin-left:0px; margin-right:0px; -qt-block-indent:0; text-indent:0px; line-height:100%;&quot;&gt;&lt;span style=&quot;font-family:&#39;Cascadia Mono SemiBold&#39;; font-size:20pt; font-weight:600; color:#191919;&quot;&gt;.ENDS&lt;/span&gt;&lt;/p&gt;&#xa;&lt;p style=&quot;-qt-paragraph-type:empty; margin-top:0px; margin-bottom:0px; margin-left:0px; margin-right:0px; -qt-block-indent:0; text-indent:0px; line-height:100%; font-family:&#39;Cascadia Mono SemiBold&#39;; font-size:20pt; font-weight:600; color:#191919;&quot;&gt;&lt;br&gt;&lt;/p&gt;" style="text;whiteSpace=wrap;html=1;" vertex="1" parent="VEJxbwAkgKRmq-XEEwgV-10">
          <mxGeometry x="2480" y="250" width="1160" height="1170" as="geometry" />
        </mxCell>
        <mxCell id="VEJxbwAkgKRmq-XEEwgV-7" value="&lt;h2&gt;GPDK 45nm&lt;/h2&gt;" style="text;html=1;align=center;verticalAlign=middle;resizable=0;points=[];autosize=1;strokeColor=#b85450;fillColor=#f8cecc;fontSize=50;fontFamily=Courier New;fontStyle=1" vertex="1" parent="VEJxbwAkgKRmq-XEEwgV-10">
          <mxGeometry y="20" width="430" height="230" as="geometry" />
        </mxCell>
        <mxCell id="VEJxbwAkgKRmq-XEEwgV-8" value="&lt;h2&gt;GPDK 90nm&lt;/h2&gt;" style="text;html=1;align=center;verticalAlign=middle;resizable=0;points=[];autosize=1;strokeColor=#6c8ebf;fillColor=#dae8fc;fontSize=50;fontFamily=Courier New;fontStyle=1" vertex="1" parent="VEJxbwAkgKRmq-XEEwgV-10">
          <mxGeometry x="1240" y="10" width="430" height="230" as="geometry" />
        </mxCell>
        <mxCell id="VEJxbwAkgKRmq-XEEwgV-9" value="&lt;h2&gt;GPDK 180nm&lt;/h2&gt;" style="text;html=1;align=center;verticalAlign=middle;resizable=0;points=[];autosize=1;strokeColor=#82b366;fillColor=#d5e8d4;fontSize=50;fontFamily=Courier New;fontStyle=1" vertex="1" parent="VEJxbwAkgKRmq-XEEwgV-10">
          <mxGeometry x="2480" width="470" height="230" as="geometry" />
        </mxCell>
      </root>
    </mxGraphModel>
  </diagram>
</mxfile>
